<?xml version="1.0" encoding="utf-8"?>
<!-- Generator: Adobe Illustrator 24.2.1, SVG Export Plug-In . SVG Version: 6.00 Build 0)  -->
<svg version="1.1" id="Layer_1" xmlns="http://www.w3.org/2000/svg" xmlns:xlink="http://www.w3.org/1999/xlink" x="0px" y="0px"
	 viewBox="0 0 300 300" style="enable-background:new 0 0 300 300;" xml:space="preserve">
<style type="text/css">
	.st0{fill:#144F8B;}
	.st1{fill:#FFFFFF;}
</style>
<g>
	<circle class="st0" cx="150" cy="150" r="147.63"/>
	<path class="st1" d="M150,300C67.29,300,0,232.71,0,150S67.29,0,150,0s150,67.29,150,150S232.71,300,150,300z M150,4.73
		C69.9,4.73,4.73,69.9,4.73,150S69.9,295.27,150,295.27S295.27,230.1,295.27,150S230.1,4.73,150,4.73z"/>
</g>
<g>
	<g>
		<path class="st1" d="M191.94,176.58c10.54-16.36,21.47-31.92,23.19-44.11c4.83-34.38-22.78-50.75-22.78-50.75l-22,34.73
			c0,0,15.66,6.66,16.25,22.17c0.27,7.05-5.42,16.27-12.09,26.92c-7.48,11.93-11.98,20.36-18.89,23.59
			c-14.8,6.9-29.48-2.89-29.48-2.89l-22,34.73c0,0,29.93,16.97,62.2-8.79C175.15,205.13,183.13,190.24,191.94,176.58z"/>
		<path class="st0" d="M128.13,227.55c-14.48,0-24.4-5.46-24.58-5.56l-1.08-0.61l23.31-36.8l1.01,0.67
			c0.14,0.09,14.33,9.33,28.33,2.8c5.72-2.67,9.9-9.44,15.69-18.8c0.86-1.39,1.75-2.84,2.7-4.34c6.26-9.99,12.17-19.43,11.91-26.25
			c-0.56-14.56-15.38-21.07-15.53-21.13l-1.28-0.55l23.35-36.87l0.99,0.59c0.28,0.17,28.24,17.17,23.35,51.93
			c-1.56,11.06-10.39,24.64-19.75,39.02c-1.2,1.84-2.41,3.7-3.61,5.57l0,0c-1.91,2.97-3.79,6-5.64,8.99
			c-6.77,10.93-13.16,21.25-20.21,26.88C152.98,224.35,139.22,227.55,128.13,227.55z M105.84,220.49
			c5.66,2.65,31.96,12.94,59.76-9.25c6.73-5.37,13.02-15.53,19.67-26.27c1.86-3.01,3.75-6.05,5.67-9.03l0,0
			c1.2-1.87,2.42-3.73,3.62-5.58c9.21-14.15,17.91-27.52,19.39-38.05c4.16-29.58-16.49-45.66-21.25-48.94l-20.64,32.59
			c3.86,1.99,15.2,9,15.73,22.62c0.29,7.54-5.81,17.28-12.27,27.6c-0.94,1.5-1.83,2.94-2.69,4.33c-6,9.71-10.34,16.73-16.7,19.7
			c-13.12,6.12-25.92-0.21-29.61-2.35L105.84,220.49z"/>
	</g>
	<g>
		<path class="st1" d="M124.64,188.61l-18.99,29.98c-3.66,5.78-11.4,7.52-17.18,3.86L84.61,220c-5.78-3.66-7.52-11.4-3.86-17.18
			l18.99-29.98c3.66-5.78,11.4-7.52,17.18-3.86l3.86,2.44C126.57,175.09,128.3,182.83,124.64,188.61z"/>
		<path class="st0" d="M95.07,227.92c-2.99,0-5.93-0.84-8.51-2.48L82.71,223c-3.6-2.28-6.1-5.84-7.04-10.02s-0.2-8.46,2.08-12.06
			l18.99-29.98c4.72-7.45,14.63-9.68,22.08-4.95l3.86,2.44c3.6,2.28,6.1,5.84,7.04,10.02c0.94,4.18,0.2,8.46-2.08,12.06
			l-18.99,29.98c-2.28,3.6-5.84,6.1-10.02,7.04C97.45,227.79,96.25,227.92,95.07,227.92z M110.28,170.61
			c-2.95,0-5.84,1.46-7.54,4.14l-18.99,29.98c-1.27,2-1.68,4.38-1.15,6.71c0.52,2.33,1.91,4.31,3.91,5.57l3.86,2.44
			c2,1.27,4.38,1.67,6.71,1.15c2.33-0.52,4.31-1.91,5.57-3.91l18.99-29.98c1.26-2,1.67-4.38,1.15-6.71
			c-0.52-2.33-1.91-4.31-3.91-5.57l-3.86-2.44C113.55,171.05,111.9,170.61,110.28,170.61z"/>
	</g>
	<g>
		<path class="st1" d="M190.87,84.06l-19.04,30.05c-3.65,5.76-11.36,7.49-17.12,3.84l-3.81-2.41c-5.76-3.65-7.49-11.36-3.84-17.12
			l19.04-30.05c3.65-5.76,11.36-7.49,17.12-3.84l3.81,2.41C192.79,70.59,194.52,78.29,190.87,84.06z"/>
		<path class="st0" d="M161.29,123.42c-2.99,0-5.91-0.84-8.49-2.47l-3.81-2.41c-7.43-4.71-9.65-14.59-4.94-22.02l19.04-30.05
			c4.71-7.43,14.59-9.65,22.02-4.94l3.81,2.41c7.43,4.71,9.65,14.59,4.94,22.02l-19.04,30.05c-2.27,3.59-5.82,6.08-9.99,7.02
			C163.66,123.29,162.47,123.42,161.29,123.42z M176.59,66.15c-2.94,0-5.81,1.46-7.5,4.11l-19.04,30.05
			c-2.61,4.13-1.38,9.61,2.74,12.22l3.81,2.41c1.99,1.26,4.37,1.67,6.68,1.15c2.32-0.52,4.29-1.9,5.55-3.89l19.04-30.06
			c2.61-4.13,1.38-9.61-2.74-12.22l-3.81-2.41C179.85,66.59,178.22,66.15,176.59,66.15z"/>
	</g>
</g>
</svg>
