<?xml version="1.0" encoding="utf-8"?>
<!-- Generator: Adobe Illustrator 24.2.1, SVG Export Plug-In . SVG Version: 6.00 Build 0)  -->
<svg version="1.1" id="Layer_1" xmlns="http://www.w3.org/2000/svg" xmlns:xlink="http://www.w3.org/1999/xlink" x="0px" y="0px"
	 viewBox="0 0 300 300" style="enable-background:new 0 0 300 300;" xml:space="preserve">
<style type="text/css">
	.st0{fill:#144F8B;}
	.st1{fill:#FFFFFF;}
</style>
<g>
	<circle class="st0" cx="150" cy="150" r="147.63"/>
	<path class="st1" d="M150,300C67.29,300,0,232.71,0,150S67.29,0,150,0s150,67.29,150,150S232.71,300,150,300z M150,4.73
		C69.9,4.73,4.73,69.9,4.73,150S69.9,295.27,150,295.27S295.27,230.1,295.27,150S230.1,4.73,150,4.73z"/>
</g>
<g>
	<g>
		<path class="st1" d="M221.63,192.7H113.19c-14.13,0-25.69-11.56-25.69-25.69V99.07c0-14.13,11.56-25.69,25.69-25.69h108.44
			c14.13,0,25.69,11.56,25.69,25.69v67.94C247.32,181.14,235.76,192.7,221.63,192.7z"/>
		<path class="st0" d="M221.63,197.44H113.19c-16.78,0-30.43-13.65-30.43-30.42V99.07c0-16.78,13.65-30.43,30.43-30.43h108.44
			c16.78,0,30.43,13.65,30.43,30.43v67.94C252.06,183.79,238.41,197.44,221.63,197.44z M113.19,78.11
			c-11.56,0-20.96,9.4-20.96,20.96v67.94c0,11.56,9.4,20.96,20.96,20.96h108.44c11.56,0,20.96-9.4,20.96-20.96V99.07
			c0-11.56-9.4-20.96-20.96-20.96H113.19z"/>
	</g>
	<g>
		<polygon class="st1" points="223.61,215.67 200.62,181.64 225.91,181.64 		"/>
	</g>
	<g>
		<path class="st1" d="M69.22,209.88h69.84c9.1,0,16.55-7.45,16.55-16.55v-43.75c0-9.1-7.45-16.55-16.55-16.55H69.22
			c-9.1,0-16.55,7.45-16.55,16.55v43.75C52.68,202.44,60.12,209.88,69.22,209.88z"/>
		<path class="st0" d="M139.06,213.44H69.22c-11.08,0-20.1-9.02-20.1-20.1v-43.75c0-11.08,9.02-20.1,20.1-20.1h69.84
			c11.08,0,20.1,9.01,20.1,20.1v43.75C159.15,204.42,150.14,213.44,139.06,213.44z M69.22,136.59c-7.17,0-13,5.83-13,12.99v43.75
			c0,7.17,5.83,13,13,13h69.84c7.17,0,12.99-5.83,12.99-13v-43.75c0-7.17-5.83-12.99-12.99-12.99H69.22z"/>
	</g>
	<g>
		<polygon class="st1" points="68.57,226.62 83.37,204.71 67.09,204.71 		"/>
	</g>
</g>
<g>
</g>
<g>
</g>
<g>
</g>
<g>
</g>
<g>
</g>
<g>
</g>
</svg>
