<?xml version="1.0" encoding="utf-8"?>
<!-- Generator: Adobe Illustrator 24.2.1, SVG Export Plug-In . SVG Version: 6.00 Build 0)  -->
<svg version="1.1" id="Layer_1" xmlns="http://www.w3.org/2000/svg" xmlns:xlink="http://www.w3.org/1999/xlink" x="0px" y="0px"
	 viewBox="0 0 300 300" style="enable-background:new 0 0 300 300;" xml:space="preserve">
<style type="text/css">
	.st0{fill:#144F8B;}
	.st1{fill:#FFFFFF;}
</style>
<g>
	<circle class="st0" cx="150" cy="150" r="147.63"/>
	<path class="st1" d="M150,300C67.29,300,0,232.71,0,150S67.29,0,150,0s150,67.29,150,150S232.71,300,150,300z M150,4.73
		C69.9,4.73,4.73,69.9,4.73,150S69.9,295.27,150,295.27S295.27,230.1,295.27,150S230.1,4.73,150,4.73z"/>
</g>
<g>
	<g>
		<g>
			<path class="st1" d="M204.54,211.22H94.4c-14.44,0-26.25-11.81-26.25-26.25v-69.94c0-14.44,11.81-26.25,26.25-26.25h110.13
				c14.44,0,26.25,11.81,26.25,26.25v69.94C230.79,199.41,218.98,211.22,204.54,211.22z"/>
			<path class="st0" d="M204.53,213.59H94.4c-15.78,0-28.62-12.84-28.62-28.62v-69.94c0-15.78,12.84-28.62,28.62-28.62h110.13
				c15.78,0,28.62,12.84,28.62,28.62v69.94C233.16,200.75,220.32,213.59,204.53,213.59z M94.4,91.14
				c-13.17,0-23.89,10.72-23.89,23.89v69.94c0,13.17,10.72,23.89,23.89,23.89h110.13c13.17,0,23.89-10.72,23.89-23.89v-69.94
				c0-13.17-10.72-23.89-23.89-23.89H94.4z"/>
		</g>
		<g>
			<g>
				<path class="st0" d="M158.91,151.18l77.9-47.71l1.06,11.13l-79.44,44.75c-5.54,3.35-12.38,3.35-17.92,0l-77.11-43.76
					l-1.26-12.12l77.9,47.71C145.86,154.75,153.08,154.75,158.91,151.18z"/>
			</g>
		</g>
	</g>
</g>
</svg>
