<?xml version="1.0" encoding="utf-8"?>
<!-- Generator: Adobe Illustrator 24.2.1, SVG Export Plug-In . SVG Version: 6.00 Build 0)  -->
<svg version="1.1" id="Layer_1" xmlns="http://www.w3.org/2000/svg" xmlns:xlink="http://www.w3.org/1999/xlink" x="0px" y="0px"
	 viewBox="0 0 300 300" style="enable-background:new 0 0 300 300;" xml:space="preserve">
<style type="text/css">
	.st0{fill:#144F8B;}
	.st1{fill:#FFFFFF;}
	.st2{fill:#11508C;}
</style>
<g>
	<circle class="st0" cx="149.86" cy="150" r="147.63"/>
	<path class="st1" d="M149.86,300c-82.71,0-150-67.29-150-150S67.15,0,149.86,0c82.71,0,150,67.29,150,150S232.57,300,149.86,300z
		 M149.86,4.73C69.76,4.73,4.59,69.9,4.59,150s65.17,145.27,145.27,145.27c80.1,0,145.27-65.17,145.27-145.27
		S229.96,4.73,149.86,4.73z"/>
</g>
<g>
	<g>
		<path class="st0" d="M84.78,99.26c0,0-10.67,25.22-2.26,67.24c1.63,8.02,4.57,15.53,8.94,19.4c4.57,4.04,9.08,6.02,20.96,10.02
			v32.81l26.02-28.77c0,0,26.83,2.1,54.31-6.63c22.63-7.19,25.96-29.93,26.44-37.75c0.12-1.98,0.28-3.96,0.49-5.93
			c0.61-5.76,1.48-18.88-0.41-37.14c-2.59-25.06-20.49-32.17-20.49-32.17s-15.88-8.41-46.43-9.05c-30.55-0.65-46.72,6.95-46.72,6.95
			S92.38,81.81,84.78,99.26z"/>
		<path class="st1" d="M107.69,241.03v-41.72c-10.04-3.48-14.59-5.65-19.36-9.86c-6.03-5.32-9.01-14.9-10.45-22
			c-8.59-42.98,2.08-68.95,2.54-70.03l0.02-0.05c7.71-17.72,20.9-22.72,23.52-23.56c2.62-1.15,19.23-7.89,48.48-7.24
			c29.8,0.63,46.23,8.43,48.34,9.49c2.48,1.07,20.48,9.73,23.2,35.97c1.91,18.48,1.08,31.82,0.41,38.13
			c-0.2,1.9-0.35,3.81-0.47,5.72c-0.47,7.78-4.01,33.8-29.73,41.97c-23.62,7.5-46.46,7.27-53.75,6.97L107.69,241.03z M89.14,101.11
			c-0.32,0.79-9.86,25.05-1.98,64.47c1.6,7.9,4.32,14.02,7.44,16.78c3.78,3.34,7.57,5.12,19.34,9.08l3.22,1.09v23.92l19.34-21.38
			l2.32,0.18c0.26,0.02,26.3,1.91,52.51-6.42c19.43-6.17,22.66-25.5,23.15-33.52c0.12-2.05,0.29-4.1,0.51-6.14
			c0.63-5.94,1.41-18.54-0.41-36.16C212.32,91.33,197.63,85,197,84.74l-0.43-0.2c-0.14-0.07-15.47-7.89-44.32-8.5
			c-28.86-0.61-44.46,6.44-44.62,6.51l-0.77,0.28C106.44,82.94,95.64,86.2,89.14,101.11z"/>
	</g>
	<g>
		<path class="st1" d="M132.14,100.72l-6.3-6.95c0,0-3.88-3.56-9.05,0s-10.18,8.57-10.18,8.57s-3.07,4.2,2.42,15.68
			c3.24,6.76,8.61,15.27,12.48,21.11c3.53,5.34,7.57,10.31,12.1,14.83c5.58,5.57,13.49,12.61,20.85,16.11
			c13.58,7.6,20.53,10.35,20.53,10.35s2.75,1.45,6.47,0s12.02-10.39,12.61-13.58c0.33-1.78,1.06-3.2,0-5.17
			c-0.81-1.51-12.29-11.64-17.62-13.42c-0.97-0.32-1.88-0.54-2.74-0.69c-3.44-0.59-6.93,0.78-9.09,3.52l-2.23,2.83
			c0,0-1.45,4.2-9.38,0c-7.92-4.2-19.88-12.77-22.31-24.73c0-4.2,1.94-5.66,1.94-5.66l5.01-4.36c0,0,3.07-1.62,2.1-6.47
			C138.77,107.83,132.14,100.72,132.14,100.72z"/>
		<path class="st2" d="M178.12,182.24c-2.18,0-3.61-0.74-3.7-0.78c-0.17-0.06-7.06-2.81-20.55-10.36
			c-7.52-3.57-15.63-10.84-21.11-16.3c-4.52-4.52-8.65-9.57-12.25-15.02c-3.93-5.95-9.3-14.46-12.56-21.25
			c-5.64-11.78-2.67-16.4-2.31-16.89c0.33-0.35,5.27-5.27,10.47-8.84c4.7-3.23,8.94-1.35,10.52,0.1l6.38,7.02
			c0.35,0.37,6.87,7.44,7.89,12.53c1.02,5.08-1.86,7.22-2.56,7.66l-4.93,4.3c-0.11,0.09-1.53,1.3-1.53,4.76
			c2.52,12.31,16,20.67,21.68,23.69c3.83,2.04,5.79,1.84,6.62,1.54c0.84-0.3,1.09-0.89,1.09-0.91l0.18-0.32l2.23-2.83
			c2.45-3.1,6.37-4.61,10.22-3.95c0.98,0.17,1.96,0.41,2.91,0.73c5.46,1.82,17.24,12.03,18.29,13.98c1.06,1.97,0.67,3.56,0.34,4.96
			c-0.08,0.32-0.16,0.64-0.22,0.98c-0.65,3.54-9.25,12.87-13.34,14.47C180.49,182.05,179.21,182.24,178.12,182.24z M107.44,103.17
			c0.03,0-2.3,4,2.65,14.33c3.19,6.67,8.5,15.08,12.39,20.97c3.52,5.32,7.54,10.24,11.95,14.65c5.34,5.33,13.24,12.41,20.52,15.88
			c13.4,7.49,20.39,10.29,20.46,10.31c0.21,0.1,2.48,1.22,5.6,0c3.54-1.38,11.41-10.17,11.87-12.69c0.07-0.38,0.16-0.75,0.25-1.11
			c0.31-1.27,0.51-2.11-0.12-3.29c-0.75-1.25-11.83-11.15-16.95-12.85c-0.84-0.28-1.7-0.5-2.56-0.65c-3-0.52-6.06,0.67-7.97,3.09
			l-2.14,2.71c-0.22,0.46-0.85,1.49-2.29,2.06c-2.13,0.84-5.05,0.29-8.66-1.62c-5.97-3.17-20.17-12.01-22.91-25.54
			c-0.02-4.9,2.14-6.65,2.39-6.84l5.17-4.47c0.08-0.05,2.26-1.33,1.49-5.19c-0.89-4.47-7.24-11.32-7.3-11.39l-0.01-0.01l-6.3-6.95
			c-0.05-0.03-3.21-2.77-7.51,0.18C112.48,98.16,107.57,103.04,107.44,103.17L107.44,103.17z"/>
	</g>
	<g>
		<path class="st1" d="M169.81,128.89c-0.01,0-0.02,0-0.03,0c-0.65-0.02-1.17-0.56-1.16-1.21c0.09-4.04-1-7.05-3.34-9.21
			c-2.68-2.47-7.83-2.3-7.88-2.3c-0.65,0.04-1.2-0.48-1.23-1.14s0.48-1.2,1.14-1.23c0.25-0.01,6.19-0.2,9.58,2.93
			c2.87,2.64,4.21,6.24,4.11,11C170.98,128.38,170.45,128.89,169.81,128.89z"/>
	</g>
	<g>
		<path class="st1" d="M180.48,132.13c-0.01,0-0.02,0-0.03,0c-0.65-0.02-1.17-0.56-1.16-1.21c0.08-3.59-1.35-12.75-6.32-18.17
			c-7.26-7.92-18.72-7.86-18.83-7.86c-0.01,0-0.01,0-0.02,0c-0.65,0-1.17-0.52-1.18-1.17c-0.01-0.65,0.51-1.19,1.16-1.2
			c0.51-0.01,12.62-0.09,20.61,8.63c5.89,6.42,7.01,16.72,6.94,19.82C181.64,131.62,181.12,132.13,180.48,132.13z"/>
	</g>
	<g>
		<path class="st1" d="M190.74,136.09c-0.01,0-0.02,0-0.03,0c-0.65-0.02-1.17-0.56-1.16-1.21c0.1-4.58-0.34-20.2-10.42-29.16
			c-13.16-11.69-27.59-11.34-27.72-11.34c-0.72,0.04-1.2-0.49-1.22-1.14c-0.02-0.65,0.49-1.2,1.14-1.22
			c0.63-0.03,15.48-0.41,29.37,11.93c10.84,9.63,11.32,26.15,11.21,30.98C191.91,135.58,191.38,136.09,190.74,136.09z"/>
	</g>
</g>
</svg>
